<svg width="100" height="125" viewBox="0 0 100 125" fill="none" xmlns="http://www.w3.org/2000/svg">
<g clip-path="url(#clip0_9_12)">
<path d="M47.7 95.1L47.5 94C46.6 89.1 45.7 85 44.5 81C44.4 80.6 44.3 80.2 44.1 79.7C43.3 76.9 42.5 74 39.9 72.7C37.8 71.5 35.3 71.9 32.7 72.2C31.7 72.3 30.6 72.5 29.6 72.5C23.5 72.7 22.4 70.3 22 67.9C21.8 66.7 21.9 65.5 21.9 64.7C21.9 64.4 21.9 64.1 21.9 63.9C21.9 63.7 21.8 63.6 21.5 63.2C21.4 63 21.2 62.8 21 62.6C20.5 61.9 20.6 60.9 20.8 60.1C19 59.4 18.7 58.2 18.6 57.7C18.5 57.3 18.7 56.8 18.9 55.9C19 55.6 19.1 55.2 19.2 54.8C19.2 54.6 19.3 54.5 19.3 54.4C19.2 54.3 18.9 54.2 18.2 54.1C17.3 53.9 16.1 53.5 15.2 52.4C14.9 52 14.4 51.4 14.5 50.5C14.5 49.8 15 49.1 15.6 48.2C15.7 48 15.8 47.9 15.9 47.8C16.5 46.7 17.4 45.5 17.4 45.5L17.8 44.8C18.8 43.2 19.8 41.7 20.4 41C20.9 40.4 21.4 39.3 21.5 38.4C21.5 38 21.4 37.3 21.3 36.6C21.1 35.7 20.9 34.7 21 33.8C21.1 32.2 21.7 30.5 22.2 29L22.3 28.7C22.6 27.8 22.8 26.9 23 26C23.2 25.2 23.3 24.4 23.6 23.6C25.8 15.9 31.6 9.7 39 7.1C42.5 5.9 46.4 5.3 51.1 5.2C52.1 5.2 53.1 5.2 54.1 5.2C58.5 5.4 62.6 6.1 66.2 7.3C71.4 9 75.8 11.9 79 15.5C81.3 18.1 82.9 21 84 24.3C87.2 34 85.2 46.2 78.6 56.9C78.3 57.4 77.9 58 77.6 58.5C76.2 60.7 74.7 62.9 74.8 65.3C75.1 70 76.5 71.9 78.3 74.5L78.5 74.8C79.2 75.8 80.2 76.9 81.4 78.2L82.2 79.1L81.2 79.8C71.2 86.4 60.4 91.4 48.8 94.8L47.7 95.1ZM36.3 69.9C37.9 69.9 39.4 70.1 40.9 71C44.1 72.8 45.1 76.2 46 79.2C46.1 79.6 46.2 80 46.4 80.4C47.6 84.2 48.4 88 49.2 92.5C59.8 89.3 69.8 84.6 79 78.7C78.1 77.7 77.3 76.7 76.7 75.9L76.5 75.6C74.7 73 73.1 70.7 72.7 65.4C72.5 62.4 74.2 59.9 75.8 57.4C76.1 56.9 76.5 56.4 76.8 55.9C83.1 45.7 85 34.1 82 24.9C81 21.9 79.5 19.2 77.4 16.8C74.5 13.5 70.3 10.8 65.5 9.2C62 8.1 58.2 7.4 54 7.2C53.1 7.2 52.1 7.2 51.1 7.2C46.6 7.3 42.9 7.9 39.6 9C32.8 11.4 27.5 17 25.4 24.1C25.2 24.8 25 25.6 24.9 26.4C24.7 27.4 24.5 28.4 24.2 29.4L24.1 29.7C23.6 31.1 23.1 32.6 23 34C23 34.6 23.1 35.5 23.3 36.3C23.5 37.2 23.6 38 23.6 38.6C23.5 39.9 22.9 41.4 22 42.3C21.5 42.9 20.3 44.7 19.6 45.8L19.1 46.5C19.1 46.5 18.2 47.7 17.7 48.7C17.6 48.8 17.5 49 17.4 49.2C17.2 49.5 16.7 50.3 16.6 50.6C16.6 50.7 16.7 50.9 16.9 51.2C17.3 51.7 17.8 52 18.7 52.2C19.9 52.5 20.6 52.7 21.1 53.4C21.5 54 21.4 54.6 21.3 55.3C21.2 55.7 21.1 56.1 21 56.4C20.9 56.8 20.8 57.3 20.8 57.5C20.8 57.5 21 58.1 22.5 58.5L23.7 58.8L23.2 59.9C22.9 60.5 22.7 61.2 22.8 61.5C22.9 61.6 23 61.7 23.1 61.9C23.5 62.4 24 62.9 24 63.8C24 64 24 64.3 24 64.7C24 65.5 24 66.6 24.1 67.6C24.3 69 24.5 70.7 29.6 70.5C30.5 70.5 31.5 70.3 32.5 70.2C33.8 70 35.1 69.9 36.3 69.9Z" fill="black"/>
</g>
<defs>
<clipPath id="clip0_9_12">
<rect width="100" height="125" fill="white"/>
</clipPath>
</defs>
</svg>
